<?xml version="1.0" standalone="no"?>
<!DOCTYPE svg PUBLIC "-//W3C//DTD SVG 20010904//EN"
 "http://www.w3.org/TR/2001/REC-SVG-20010904/DTD/svg10.dtd">
<svg version="1.0" xmlns="http://www.w3.org/2000/svg"
 width="150.000000pt" height="150.000000pt" viewBox="0 0 150.000000 150.000000"
 preserveAspectRatio="xMidYMid meet">
<metadata>
Created by potrace 1.14, written by Peter Selinger 2001-2017
</metadata>
<g transform="translate(0.000000,150.000000) scale(0.100000,-0.100000)"
fill="#000000" stroke="none">
<path d="M631 1386 c-9 -11 -8 -17 3 -29 12 -12 13 -22 5 -48 -11 -40 -13
-116 -4 -181 5 -39 4 -49 -10 -54 -9 -4 -15 -15 -13 -28 2 -15 -12 -35 -45
-65 -91 -84 -205 -283 -214 -375 -18 -171 118 -276 370 -285 39 -1 38 -45 -2
-66 -16 -8 -43 -32 -60 -52 -18 -22 -41 -38 -54 -39 -77 -2 -127 -42 -127
-102 0 -65 -17 -62 311 -62 165 0 299 4 299 9 0 5 -7 14 -15 21 -8 7 -15 19
-15 26 0 8 -5 14 -12 14 -6 0 -8 3 -5 6 10 11 57 -25 67 -52 8 -20 16 -24 49
-24 22 0 42 3 44 8 3 4 -4 30 -14 57 -28 75 -99 114 -170 94 -22 -5 -29 -3
-38 15 -13 23 -93 80 -127 90 -15 5 -20 14 -20 36 0 23 4 30 20 31 96 3 197
69 229 149 19 48 21 134 3 200 -35 133 -177 314 -278 356 -27 10 -48 24 -48
31 0 6 -13 14 -30 18 -16 4 -29 10 -28 13 1 4 -4 25 -11 47 -6 22 -14 60 -18
83 -5 43 -5 44 18 32 23 -11 23 -10 5 4 -11 9 -23 16 -27 16 -12 0 -1 49 15
66 19 19 20 26 4 42 -16 16 -43 15 -57 -2z m-41 -1308 c-1 -7 -7 -24 -14 -37
-16 -29 -28 -8 -15 27 9 23 29 31 29 10z"/>
<path d="M595 1220 c3 -5 8 -10 11 -10 2 0 4 5 4 10 0 6 -5 10 -11 10 -5 0 -7
-4 -4 -10z"/>
</g>
</svg>
